<?xml version="1.0" encoding="UTF-8"?>
<svg id="Layer_2" xmlns="http://www.w3.org/2000/svg" viewBox="0 0 288.63 295.45">
  <defs>
    <style>
      .cls-1 {
        fill: #acaac3;
      }

      .cls-2 {
        fill: #5a276c;
      }
    </style>
  </defs>
  <g id="Layer_10">
    <g>
      <path class="cls-1" d="M252.05,181.76c-17.29,13.08-33.53,13.85-33.53,13.85,0,0,1.89-11.49,1.49-22.54-.18-4.96-2.55-19.67-2.55-19.67,0,0-16.38,42.43-30.41,57.97-11.84,13.12-26.67,22.04-42.43,30.18-.1.05-.2.09-.3.14-.1-.05-.2-.09-.3-.14-15.76-8.14-30.59-17.06-42.43-30.18-14.03-15.54-30.41-57.97-30.41-57.97,0,0-2.37,14.71-2.55,19.67-.4,11.05,1.49,22.54,1.49,22.54,0,0-16.24-.76-33.53-13.85-20.11-15.22-27.58-36.53-27.58-36.53-.71.33-18.52,62.33,47.1,92.16,13.12,5.96,22.81,8.97,32.63,14.56,18.36,10.44,31.08,23.13,42.9,42.58,1.57.25,7.28.67,12.68.93,5.4-.26,11.11-.67,12.68-.93,11.82-19.45,24.54-32.14,42.9-42.58,9.82-5.59,19.51-8.6,32.63-14.56,65.62-29.83,47.81-91.83,47.1-92.16,0,0-7.47,21.31-27.58,36.53Z"/>
      <path class="cls-2" d="M277.96,0s-35.59,2.85-56.81,16.85c-38.93,25.68-47.19,48.69-47.19,48.69,0,0-12.45-6.16-29.64-5.47-17.19-.69-29.64,5.47-29.64,5.47,0,0-8.26-23.01-47.19-48.69C46.26,2.85,10.68,0,10.68,0,10.68,0-3.63,30.39.88,67.41c4.73,38.79,29.32,69.99,49.16,84.44.32-9.14,3.15-22.58,8.83-32.71,8.18-14.58,21.85-25.94,21.85-25.94,0,0-.18,17.21,10.6,44.68,5.48,13.96,15.33,27.54,26.12,38.09,13.95,13.63,26.86,20.1,26.86,20.1h0s0,0,0,0c0,0,12.91-6.47,26.86-20.1,10.79-10.55,20.65-24.13,26.12-38.09,10.78-27.48,10.6-44.68,10.6-44.68,0,0,13.67,11.37,21.85,25.94,5.68,10.13,8.51,23.56,8.83,32.71,19.85-14.46,44.44-45.66,49.16-84.44,4.51-37.02-9.8-67.41-9.8-67.41Z"/>
    </g>
  </g>
</svg>