<?xml version="1.0" encoding="UTF-8"?>
<svg id="Layer_2" xmlns="http://www.w3.org/2000/svg" viewBox="0 0 550 514.21">
  <defs>
    <style>
      .cls-1 {
        fill: #707274;
      }

      .cls-2 {
        fill: #606060;
      }

      .cls-3 {
        fill: #2d568e;
      }

      .cls-4 {
        fill: #3966a5;
      }

      .cls-5 {
        fill: #5272b0;
      }
    </style>
  </defs>
  <g id="Object">
    <g>
      <polygon class="cls-1" points="550 514.21 0 514.21 0 318.19 82.83 318.19 82.83 431.38 467.17 431.38 467.17 318.19 550 318.19 550 514.21"/>
      <path class="cls-2" d="M115.28,514.21s335.39-11.89,434.72-121.57v121.57H115.28Z"/>
      <g>
        <polygon class="cls-4" points="182.43 172.02 182.43 377.77 367.57 377.77 367.57 172.02 447.02 172.02 275 0 102.98 172.02 182.43 172.02"/>
        <path class="cls-3" d="M182.43,377.77s154.02-20.43,185.15-93.32v93.32h-185.15Z"/>
        <path class="cls-5" d="M155.48,134.2L275,12.96l24.78,23.06s-43.14,14.13-144.3,98.18Z"/>
      </g>
    </g>
  </g>
</svg>